<svg width="1111" height="262" viewBox="0 0 1111 262" fill="none" xmlns="http://www.w3.org/2000/svg">
<g opacity="0.6">
<path fill-rule="evenodd" clip-rule="evenodd" d="M642.499 -559.755C729.162 -542.277 822.47 -536.411 879.843 -473.615C947.421 -399.65 993.741 -300.155 970.534 -200.714C946.575 -98.0582 855.278 -23.5306 761.368 34.0283C665.458 92.8129 558.317 130.8 448.444 119.283C324.954 106.339 186.021 73.43 132.742 -31.8618C80.8367 -134.439 152.431 -256.069 203.84 -364.113C244.679 -449.943 300.487 -532.517 389.948 -572.417C471.249 -608.677 557.425 -576.913 642.499 -559.755Z" stroke="white"/>
<path fill-rule="evenodd" clip-rule="evenodd" d="M705.031 -600.373C817.854 -575.96 878.934 -466.814 924.435 -366.153C964.06 -278.491 967.275 -180.831 937.419 -86.2655C908.463 5.44823 856.014 98.2265 764.804 139.457C679.619 177.964 593.368 117.854 501.788 110.656C380.516 101.124 231.289 175.017 150.784 91.1937C68.38 5.39331 105.977 -140.155 151.918 -253.633C193.242 -355.707 286.892 -422.778 383.34 -483.24C483.773 -546.2 592.044 -624.823 705.031 -600.373Z" stroke="white"/>
<path fill-rule="evenodd" clip-rule="evenodd" d="M722.034 -576.462C831.868 -576.828 944.395 -513.589 982.864 -417.284C1019.19 -326.35 932.085 -234.087 896.704 -139.182C866.138 -57.1924 863.211 35.5688 792.901 92.2738C712.937 156.765 603.132 203.342 507.27 174.899C414.529 147.381 399.099 35.8369 345.483 -40.4808C285.374 -126.041 142.374 -190.676 179.211 -292.065C216.486 -394.66 381.471 -363.064 481.778 -415.617C570.677 -462.193 622.919 -576.132 722.034 -576.462Z" stroke="white"/>
<path fill-rule="evenodd" clip-rule="evenodd" d="M672.821 -590.763C777.015 -574.872 853.572 -490.39 894.188 -398.514C930.593 -316.162 889.439 -226.036 874.142 -135.358C855.442 -24.506 893.484 114.481 796.392 181.223C698.725 248.359 574.962 171.683 461.602 148.222C347.04 124.513 199.31 142.375 142.483 45.8936C85.8234 -50.3048 160.757 -172.014 211.396 -276.581C251.4 -359.185 316.612 -421.608 394.6 -474.71C480.77 -533.382 571.811 -606.169 672.821 -590.763Z" stroke="white"/>
<path fill-rule="evenodd" clip-rule="evenodd" d="M649.533 -549.77C727.965 -523.194 821.24 -527.114 872.479 -465.364C929.416 -396.748 935.519 -304.354 927.752 -214.479C917.609 -97.1046 919.877 37.5719 822.414 114C718.542 195.453 570.267 195.821 445.625 163.591C326.11 132.687 225.711 53.9668 175.428 -53.2963C129.36 -151.569 161.334 -263.921 195.224 -370.561C227.754 -472.922 257.468 -597.528 361.417 -638.532C461.771 -678.118 550.784 -583.23 649.533 -549.77Z" stroke="white"/>
<path fill-rule="evenodd" clip-rule="evenodd" d="M630.104 -499.119C738.894 -480.074 893.595 -525.148 940.43 -430.71C987.773 -335.247 848.777 -242.32 808.398 -139.606C775.42 -55.7174 808.502 58.0479 729.076 106.919C649.484 155.892 557.291 86.258 467.353 70.2392C371.263 53.1247 245.113 88.5315 192.594 11.3665C139.838 -66.1472 218.328 -167.136 242.464 -260.187C267.71 -357.52 245.458 -481.694 334.763 -536.739C424.311 -591.934 528.793 -516.854 630.104 -499.119Z" stroke="white"/>
<path fill-rule="evenodd" clip-rule="evenodd" d="M645.45 -533.947C724.047 -512.994 781.332 -460.676 831.868 -400.591C894.4 -326.246 971.863 -252.812 964.309 -154.847C955.617 -42.1124 898.644 82.6325 790.691 133.455C686.446 182.533 578.195 108.374 470.869 77.4581C376.108 50.1619 270.205 41.4821 211.408 -33.4095C147.137 -115.275 115.029 -227.456 152.549 -328.001C188.432 -424.162 294.043 -476.808 392.166 -517.806C474.098 -552.039 562.155 -556.151 645.45 -533.947Z" stroke="white"/>
<path fill-rule="evenodd" clip-rule="evenodd" d="M641.036 -548.617C733.06 -527.384 789.067 -448.863 837.075 -372.067C885.645 -294.372 926.184 -210.036 910.297 -117.896C892.705 -15.8625 847.627 98.3569 748.328 142.654C652.881 185.232 554.582 118.859 460.584 82.7191C387.553 54.6402 321.107 20.503 274.547 -39.5048C221.366 -108.045 166.943 -185.79 185.011 -272.444C203.894 -363.007 283.695 -430.477 366.525 -480.639C450.481 -531.484 547.879 -570.111 641.036 -548.617Z" stroke="white"/>
</g>
</svg>
