<svg width="31" height="24" viewBox="0 0 31 24" fill="none" xmlns="http://www.w3.org/2000/svg">
<path d="M4.79999 10.1445C6.45468 10.1445 7.79999 8.68711 7.79999 6.89453C7.79999 5.10195 6.45468 3.64453 4.79999 3.64453C3.1453 3.64453 1.79999 5.10195 1.79999 6.89453C1.79999 8.68711 3.1453 10.1445 4.79999 10.1445ZM25.8 10.1445C27.4547 10.1445 28.8 8.68711 28.8 6.89453C28.8 5.10195 27.4547 3.64453 25.8 3.64453C24.1453 3.64453 22.8 5.10195 22.8 6.89453C22.8 8.68711 24.1453 10.1445 25.8 10.1445ZM27.3 11.7695H24.3C23.475 11.7695 22.7297 12.1301 22.1859 12.7141C24.075 13.8363 25.4156 15.8625 25.7062 18.2695H28.8C29.6297 18.2695 30.3 17.5434 30.3 16.6445V15.0195C30.3 13.227 28.9547 11.7695 27.3 11.7695ZM15.3 11.7695C18.2015 11.7695 20.55 9.22539 20.55 6.08203C20.55 2.93867 18.2015 0.394531 15.3 0.394531C12.3984 0.394531 10.05 2.93867 10.05 6.08203C10.05 9.22539 12.3984 11.7695 15.3 11.7695ZM18.9 13.3945H18.5109C17.5359 13.9023 16.4531 14.207 15.3 14.207C14.1469 14.207 13.0687 13.9023 12.0891 13.3945H11.7C8.71874 13.3945 6.29999 16.0148 6.29999 19.2445V20.707C6.29999 22.0527 7.3078 23.1445 8.54999 23.1445H22.05C23.2922 23.1445 24.3 22.0527 24.3 20.707V19.2445C24.3 16.0148 21.8812 13.3945 18.9 13.3945ZM8.41405 12.7141C7.8703 12.1301 7.12499 11.7695 6.29999 11.7695H3.29999C1.6453 11.7695 0.299988 13.227 0.299988 15.0195V16.6445C0.299988 17.5434 0.9703 18.2695 1.79999 18.2695H4.88905C5.18436 15.8625 6.52499 13.8363 8.41405 12.7141Z" fill="#0B7077"/>
</svg>
