<svg width="63" height="38" viewBox="0 0 63 38" fill="none" xmlns="http://www.w3.org/2000/svg">
<path d="M54.0087 34.8749L54.0087 19.0104C54.0087 19.0104 41.7705 20.5708 31.2334 25.796C20.6962 20.5708 8.45805 19.0104 8.45805 19.0104L8.45805 34.8749C4.86693 35.6788 1.96095 36.6482 2.41136e-09 37.7594C6.61524 35.6788 18.121 34.2839 31.2097 34.2839C44.2985 34.2839 55.8043 35.6552 62.4195 37.7594C60.4822 36.6482 57.5998 35.6788 54.0087 34.8749Z" fill="#0B7077"/>
<path d="M11.7894 17.308L11.7894 19.5541C16.1365 20.3816 24.0748 22.2258 31.2334 25.7959C22.7754 19.1521 11.7894 17.308 11.7894 17.308Z" fill="#0B7077"/>
<path d="M50.701 17.308C50.701 17.308 39.715 19.1521 31.257 25.7959C38.4156 22.2494 46.3539 20.3816 50.701 19.5541L50.701 17.308Z" fill="#0B7077"/>
<path d="M31.257 17.5207C30.8081 18.5137 30.123 19.3885 29.3197 20.0742L31.2334 23.4078L33.1943 20.0742C32.3674 19.3885 31.7059 18.5137 31.257 17.5207Z" fill="#0B7077"/>
<path d="M25.4452 15.0383C26.721 15.0383 27.7841 13.998 27.7841 12.6976C27.7841 11.4209 26.7446 10.3569 25.4452 10.3569C24.1694 10.3569 23.1062 11.3972 23.1062 12.6976C23.1062 13.998 24.1457 15.0383 25.4452 15.0383ZM24.6655 11.0662C25.1617 11.0662 25.5633 11.4682 25.5633 11.9647C25.5633 12.4612 25.1617 12.8631 24.6655 12.8631C24.1694 12.8631 23.7677 12.4612 23.7677 11.9647C23.7677 11.4682 24.1694 11.0662 24.6655 11.0662Z" fill="#0B7077"/>
<path d="M34.7064 12.6976C34.7064 13.9743 35.746 15.0383 37.0218 15.0383C38.2975 15.0383 39.3607 13.998 39.3607 12.6976C39.3607 11.4209 38.3212 10.3569 37.0218 10.3569C35.7696 10.3806 34.7064 11.4209 34.7064 12.6976ZM37.3053 11.9647C37.3053 12.4612 36.9036 12.8631 36.4075 12.8631C35.9113 12.8631 35.5097 12.4612 35.5097 11.9647C35.5097 11.4682 35.9113 11.0662 36.4075 11.0662C36.9036 11.0662 37.3053 11.4682 37.3053 11.9647Z" fill="#0B7077"/>
<path d="M20.9798 17.2843C22.1375 18.4192 23.7204 19.1048 25.4451 19.1048C27.9967 19.1048 30.2175 17.5917 31.257 15.4165C32.2729 17.5917 34.4938 19.1048 37.069 19.1048C38.8173 19.1048 40.3766 18.3955 41.5343 17.2843C42.0304 17.9936 42.4557 18.7502 42.8101 19.5304C44.2513 18.9866 45.5743 18.5847 46.732 18.2537C45.9759 16.6932 44.7946 15.2983 43.3062 14.1161C43.4007 13.6669 43.4716 13.1704 43.4716 12.6975C43.4716 11.7518 43.259 10.8534 42.8809 10.0259C42.4321 8.70184 41.7469 7.47239 40.8728 6.38481L40.8255 0.0720825L35.5806 2.53097C34.2103 2.01082 32.7455 1.75075 31.257 1.75075C29.7686 1.75075 28.3038 2.01082 26.9335 2.53097L21.6649 0.0720825L21.6177 6.38481C20.7672 7.47239 20.082 8.6782 19.6331 9.97857C19.2551 10.8061 19.0188 11.7282 19.0188 12.6975C19.0188 13.194 19.0661 13.6669 19.1842 14.1161C17.6958 15.2983 16.5381 16.6932 15.7821 18.2537C16.9161 18.5847 18.2628 19.0103 19.704 19.5304C20.0584 18.7502 20.4836 17.9936 20.9798 17.2843ZM42.1013 12.6975C42.1013 15.4874 39.8332 17.7572 37.0454 17.7572C34.2575 17.7572 31.9894 15.4874 31.9894 12.6975C31.9894 9.90764 34.2575 7.6379 37.0454 7.6379C39.8332 7.66154 42.1013 9.93128 42.1013 12.6975ZM31.2334 3.09841C34.4465 3.09841 37.3761 4.49336 39.3843 6.73946C38.6519 6.45574 37.8486 6.29024 37.0217 6.29024C34.4701 6.29024 32.2493 7.8034 31.2098 9.97857C30.1939 7.8034 27.973 6.29024 25.3978 6.29024C24.5709 6.29024 23.7676 6.45574 23.0589 6.73946C25.1143 4.49336 28.0203 3.09841 31.2334 3.09841ZM25.4451 7.66154C28.2329 7.66154 30.501 9.93129 30.501 12.7212C30.501 15.5111 28.2329 17.7808 25.4451 17.7808C22.6572 17.7808 20.3891 15.5111 20.3891 12.7212C20.3891 9.93129 22.6572 7.66154 25.4451 7.66154Z" fill="#0B7077"/>
</svg>
